<svg width="194" height="194" viewBox="0 0 194 194" fill="none" xmlns="http://www.w3.org/2000/svg">
<path d="M175.755 96.755C175.755 107.129 173.711 117.402 169.741 126.987C165.771 136.572 159.952 145.281 152.616 152.616C145.28 159.952 136.571 165.771 126.987 169.741C117.402 173.712 107.129 175.755 96.7546 175.755V140.205C102.461 140.205 108.111 139.081 113.382 136.898C118.654 134.714 123.444 131.514 127.478 127.479C131.513 123.444 134.714 118.654 136.897 113.383C139.081 108.111 140.205 102.461 140.205 96.755H175.755Z" fill="#3187EC"/>
<path d="M96.7548 175.755C81.13 175.755 65.8562 171.122 52.8647 162.441C39.8732 153.76 29.7476 141.422 23.7683 126.987C17.7889 112.551 16.2245 96.6672 19.2727 81.3427C22.3209 66.0182 29.845 51.9418 40.8933 40.8934C51.9417 29.8451 66.0181 22.321 81.3426 19.2728C96.6671 16.2246 112.551 17.789 126.987 23.7684C141.422 29.7477 153.76 39.8733 162.441 52.8648C171.121 65.8563 175.755 81.1301 175.755 96.7549L140.205 96.7549C140.205 88.1613 137.656 79.7606 132.882 72.6153C128.108 65.47 121.322 59.9009 113.382 56.6123C105.443 53.3237 96.7066 52.4632 88.2781 54.1397C79.8496 55.8162 72.1076 59.9545 66.031 66.031C59.9544 72.1076 55.8162 79.8497 54.1396 88.2782C52.4631 96.7066 53.3236 105.443 56.6122 113.382C59.9008 121.322 65.4699 128.108 72.6152 132.882C79.7605 137.657 88.1611 140.205 96.7547 140.205L96.7548 175.755Z" fill="#31EC71"/>
</svg>
